<?xml version="1.0" encoding="UTF-8"?>
<svg width="461px" height="54px" viewBox="0 0 461 54" version="1.1" xmlns="http://www.w3.org/2000/svg" xmlns:xlink="http://www.w3.org/1999/xlink">
    <!-- Generator: Sketch 46.2 (44496) - http://www.bohemiancoding.com/sketch -->
    <title>logo</title>
    <desc>Created with Sketch.</desc>
    <defs></defs>
    <g id="Page-1" stroke="none" stroke-width="1" fill="none" fill-rule="evenodd">
        <g id="logo">
            <g id="text" transform="translate(230.000000, 0.000000)" fill="#D02D42">
                <path d="M60.3818359,42.4648438 C60.3818359,45.8727384 59.470875,48.5537012 57.6489258,50.5078125 C55.8269766,52.4619238 53.330094,53.4389648 50.1582031,53.4389648 C46.9768721,53.4389648 44.4799895,52.4501238 42.6674805,50.4724121 C40.8549714,48.4947004 39.9487305,45.8255376 39.9487305,42.4648438 C39.9487305,39.0758294 40.8549714,36.3972266 42.6674805,34.4289551 C44.4799895,32.4606835 46.9768721,31.4765625 50.1582031,31.4765625 C53.330094,31.4765625 55.8269766,32.4559635 57.6489258,34.4147949 C59.470875,36.3736263 60.3818359,39.0569491 60.3818359,42.4648438 Z M54.9160156,42.4506836 C54.9160156,41.1951435 54.7862155,40.1260624 54.5266113,39.2434082 C54.2670072,38.3607541 53.9200868,37.6362333 53.4858398,37.0698242 C53.0327126,36.493975 52.520592,36.0809746 51.9494629,35.8308105 C51.3783337,35.5806465 50.7859731,35.4555664 50.1723633,35.4555664 C49.5209928,35.4555664 48.9309922,35.5712065 48.4023438,35.8024902 C47.8736953,36.0337739 47.3639347,36.4467744 46.8730469,37.0415039 C46.4387999,37.5890327 46.0871595,38.3159134 45.8181152,39.222168 C45.5490709,40.1284225 45.4145508,41.2093036 45.4145508,42.4648438 C45.4145508,43.7581445 45.5419909,44.8319456 45.796875,45.6862793 C46.0517591,46.540613 46.4010394,47.2556937 46.8447266,47.831543 C47.2978538,48.4168324 47.8123344,48.8345528 48.3881836,49.0847168 C48.9640328,49.3348808 49.5587534,49.4599609 50.1723633,49.4599609 C50.7954133,49.4599609 51.3995739,49.3254408 51.9848633,49.0563965 C52.5701527,48.7873522 53.0751932,48.3696317 53.5,47.8032227 C53.9531273,47.1896128 54.3024076,46.4745321 54.5478516,45.657959 C54.7932955,44.8413859 54.9160156,43.7723048 54.9160156,42.4506836 Z" id="О"></path>
                <path d="M38.1020508,46.2597656 C38.1020508,47.2887421 37.9061706,48.2351031 37.5144043,49.098877 C37.122638,49.9626508 36.5869175,50.6682915 35.9072266,51.2158203 C35.0953735,51.8671908 34.2198126,52.3273912 33.2805176,52.5964355 C32.3412225,52.8654799 31.1966213,53 29.8466797,53 L21.1806641,53 L21.1806641,31.9155273 L36.5019531,31.9155273 L36.5019531,35.9370117 L26.4482422,35.9370117 L26.4482422,39.8310547 L29.9316406,39.8310547 C31.1966209,39.8310547 32.3294221,39.9230948 33.3300781,40.1071777 C34.3307342,40.2912607 35.2275351,40.6948211 36.0205078,41.3178711 C36.7473995,41.8842802 37.27604,42.5946409 37.6064453,43.4489746 C37.9368506,44.3033083 38.1020508,45.2402293 38.1020508,46.2597656 Z M32.6362305,46.4155273 C32.6362305,46.0662417 32.5984704,45.7358414 32.5229492,45.4243164 C32.447428,45.1127914 32.2822278,44.8248711 32.0273438,44.5605469 C31.7724597,44.3056628 31.4231793,44.1027026 30.9794922,43.9516602 C30.5358051,43.8006177 29.9222044,43.7250977 29.1386719,43.7250977 L26.4482422,43.7250977 L26.4482422,49.0917969 L29.1386719,49.0917969 C30.2242893,49.0917969 31.0786102,48.8605166 31.7016602,48.3979492 C32.3247101,47.9353818 32.6362305,47.2745811 32.6362305,46.4155273 Z" id="Б"></path>
                <path d="M11.2714844,53.4106445 C8.10903367,53.4106445 5.59799107,52.4548435 3.73828125,50.5432129 C1.87857143,48.6315822 0.948730469,45.9435395 0.948730469,42.4790039 C0.948730469,39.1371903 1.88093143,36.4727476 3.74536133,34.4855957 C5.60979122,32.4984438 8.12319382,31.5048828 11.2856445,31.5048828 C12.125818,31.5048828 12.8810188,31.5520829 13.5512695,31.6464844 C14.2215203,31.7408859 14.8634409,31.873046 15.4770508,32.0429688 C15.9584985,32.184571 16.482419,32.3780912 17.0488281,32.6235352 C17.6152372,32.8689791 18.0730777,33.0813793 18.4223633,33.2607422 L18.4223633,38.2875977 L17.8842773,38.2875977 C17.6293933,38.061034 17.3084329,37.7896337 16.9213867,37.4733887 C16.5343405,37.1571436 16.0953801,36.8479833 15.6044922,36.5458984 C15.1136043,36.2438136 14.5731638,35.9865733 13.9831543,35.7741699 C13.3931448,35.5617665 12.7771842,35.4555664 12.1352539,35.4555664 C11.3706016,35.4555664 10.6696809,35.5759265 10.0324707,35.8166504 C9.39526049,36.0573743 8.78873986,36.4750947 8.21289062,37.0698242 C7.68424215,37.6079128 7.2523617,38.3347936 6.91723633,39.2504883 C6.58211095,40.166183 6.41455078,41.2470641 6.41455078,42.4931641 C6.41455078,43.8053451 6.58919096,44.9074662 6.93847656,45.7995605 C7.28776216,46.6916549 7.74560264,47.4114556 8.31201172,47.9589844 C8.8595405,48.4876329 9.47078113,48.8699532 10.145752,49.105957 C10.8207228,49.3419608 11.4933235,49.4599609 12.1635742,49.4599609 C12.8621454,49.4599609 13.5276661,49.3443208 14.1601562,49.1130371 C14.7926464,48.8817534 15.3260069,48.6245131 15.7602539,48.3413086 C16.2322615,48.0486639 16.6476219,47.7513036 17.0063477,47.4492188 C17.3650734,47.1471339 17.6765937,46.8780936 17.940918,46.6420898 L18.4223633,46.6420898 L18.4223633,51.5981445 C18.0353171,51.7775074 17.5869166,51.9828276 17.0771484,52.2141113 C16.5673803,52.445395 16.0434597,52.6412752 15.5053711,52.8017578 C14.8445605,53.000001 14.2262399,53.1510411 13.6503906,53.2548828 C13.0745414,53.3587245 12.2815806,53.4106445 11.2714844,53.4106445 Z" id="С"></path>
                <path d="M46.3818359,11.4648437 C46.3818359,14.8727384 45.470875,17.5537012 43.6489258,19.5078125 C41.8269766,21.4619238 39.330094,22.4389648 36.1582031,22.4389648 C32.9768721,22.4389648 30.4799895,21.4501238 28.6674805,19.4724121 C26.8549714,17.4947004 25.9487305,14.8255376 25.9487305,11.4648437 C25.9487305,8.07582941 26.8549714,5.39722664 28.6674805,3.42895508 C30.4799895,1.46068352 32.9768721,0.4765625 36.1582031,0.4765625 C39.330094,0.4765625 41.8269766,1.45596351 43.6489258,3.41479492 C45.470875,5.37362633 46.3818359,8.05694911 46.3818359,11.4648437 Z M40.9160156,11.4506836 C40.9160156,10.1951435 40.7862155,9.12606236 40.5266113,8.2434082 C40.2670072,7.36075405 39.9200868,6.6362333 39.4858398,6.06982422 C39.0327126,5.49397499 38.520592,5.08097456 37.9494629,4.83081055 C37.3783337,4.58064654 36.7859731,4.45556641 36.1723633,4.45556641 C35.5209928,4.45556641 34.9309922,4.57120653 34.4023438,4.80249023 C33.8736953,5.03377394 33.3639347,5.44677437 32.8730469,6.04150391 C32.4387999,6.58903269 32.0871595,7.31591344 31.8181152,8.22216797 C31.5490709,9.1284225 31.4145508,10.2093036 31.4145508,11.4648438 C31.4145508,12.7581445 31.5419909,13.8319456 31.796875,14.6862793 C32.0517591,15.540613 32.4010394,16.2556937 32.8447266,16.831543 C33.2978538,17.4168324 33.8123344,17.8345528 34.3881836,18.0847168 C34.9640328,18.3348808 35.5587534,18.4599609 36.1723633,18.4599609 C36.7954133,18.4599609 37.3995739,18.3254408 37.9848633,18.0563965 C38.5701527,17.7873522 39.0751932,17.3696317 39.5,16.8032227 C39.9531273,16.1896128 40.3024076,15.4745321 40.5478516,14.657959 C40.7932955,13.8413859 40.9160156,12.7723048 40.9160156,11.4506836 Z" id="О"></path>
                <path d="M58.2714844,22.4106445 C55.1090337,22.4106445 52.5979911,21.4548435 50.7382812,19.5432129 C48.8785714,17.6315822 47.9487305,14.9435395 47.9487305,11.4790039 C47.9487305,8.13719032 48.8809314,5.47274757 50.7453613,3.4855957 C52.6097912,1.49844384 55.1231938,0.504882812 58.2856445,0.504882812 C59.125818,0.504882812 59.8810188,0.552082861 60.5512695,0.646484375 C61.2215203,0.740885889 61.8634409,0.873046025 62.4770508,1.04296875 C62.9584985,1.18457102 63.482419,1.37809122 64.0488281,1.62353516 C64.6152372,1.86897909 65.0730777,2.08137931 65.4223633,2.26074219 L65.4223633,7.28759766 L64.8842773,7.28759766 C64.6293933,7.06103402 64.3084329,6.78963374 63.9213867,6.47338867 C63.5343405,6.1571436 63.0953801,5.84798328 62.6044922,5.54589844 C62.1136043,5.24381359 61.5731638,4.98657333 60.9831543,4.77416992 C60.3931448,4.56176652 59.7771842,4.45556641 59.1352539,4.45556641 C58.3706016,4.45556641 57.6696809,4.57592653 57.0324707,4.81665039 C56.3952605,5.05737425 55.7887399,5.47509468 55.2128906,6.06982422 C54.6842421,6.60791285 54.2523617,7.3347936 53.9172363,8.25048828 C53.582111,9.16618296 53.4145508,10.2470641 53.4145508,11.4931641 C53.4145508,12.8053451 53.589191,13.9074662 53.9384766,14.7995605 C54.2877622,15.6916549 54.7456026,16.4114556 55.3120117,16.9589844 C55.8595405,17.4876329 56.4707811,17.8699532 57.145752,18.105957 C57.8207228,18.3419608 58.4933235,18.4599609 59.1635742,18.4599609 C59.8621454,18.4599609 60.5276661,18.3443208 61.1601562,18.1130371 C61.7926464,17.8817534 62.3260069,17.6245131 62.7602539,17.3413086 C63.2322615,17.0486639 63.6476219,16.7513036 64.0063477,16.4492188 C64.3650734,16.1471339 64.6765937,15.8780936 64.940918,15.6420898 L65.4223633,15.6420898 L65.4223633,20.5981445 C65.0353171,20.7775074 64.5869166,20.9828276 64.0771484,21.2141113 C63.5673803,21.445395 63.0434597,21.6412752 62.5053711,21.8017578 C61.8445605,22.000001 61.2262399,22.1510411 60.6503906,22.2548828 C60.0745414,22.3587245 59.2815806,22.4106445 58.2714844,22.4106445 Z" id="С"></path>
                <path d="M24.6650391,26.8427734 L19.8081055,26.8427734 L19.8081055,21.9291992 L8.02685547,21.9291992 L8.02685547,26.8427734 L3.16992188,26.8427734 L3.16992188,17.9643555 L4.5859375,17.9643555 C5.57715339,15.9064025 6.3606742,13.4024399 6.93652344,10.4523926 C7.51237267,7.50234528 7.80029297,4.32342199 7.80029297,0.915527344 L22.668457,0.915527344 L22.668457,17.9643555 L24.6650391,17.9643555 L24.6650391,26.8427734 Z M17.3725586,17.9643555 L17.3725586,4.93701172 L12.7563477,4.93701172 C12.5769848,7.48585259 12.2229844,9.87653506 11.6943359,12.1091309 C11.1656875,14.3417267 10.5001668,16.2934487 9.69775391,17.9643555 L17.3725586,17.9643555 Z" id="Д"></path>
                <polygon id="Т" points="73.2304688 22 73.2304688 4.93701172 67 4.93701172 67 0.915527344 84.7568359 0.915527344 84.7568359 4.93701172 78.5263672 4.93701172 78.5263672 22"></polygon>
                <path d="M82.9150391,22 L90.0375977,0.915527344 L95.8149414,0.915527344 L102.9375,22 L97.4858398,22 L96.1689453,17.6953125 L89.5419922,17.6953125 L88.2250977,22 L82.9150391,22 Z M95.0078125,13.8720703 L92.8554688,6.91943359 L90.703125,13.8720703 L95.0078125,13.8720703 Z" id="А"></path>
                <path d="M122.04541,15.5429687 C122.04541,16.5908256 121.84717,17.5112265 121.450684,18.3041992 C121.054197,19.0971719 120.520837,19.7532526 119.850586,20.2724609 C119.057613,20.8955109 118.186772,21.3391914 117.238037,21.6035156 C116.289302,21.8678399 115.083341,22 113.620117,22 L105.180664,22 L105.180664,0.915527344 L112.628906,0.915527344 C114.177091,0.915527344 115.350012,0.974527405 116.147705,1.0925293 C116.945398,1.21053119 117.693519,1.45833145 118.39209,1.8359375 C119.147302,2.24186401 119.711343,2.78466457 120.084229,3.46435547 C120.457114,4.14404637 120.643555,4.92756718 120.643555,5.81494141 C120.643555,6.84391791 120.386314,7.75959885 119.871826,8.56201172 C119.357338,9.36442458 118.646977,9.9544252 117.740723,10.3320312 L117.740723,10.4453125 C119.043464,10.7190769 120.086585,11.2783975 120.870117,12.123291 C121.65365,12.9681846 122.04541,14.1080657 122.04541,15.5429687 Z M115.262695,6.87695312 C115.262695,6.53710768 115.175375,6.18782731 115.000732,5.82910156 C114.82609,5.47037581 114.554689,5.21077554 114.186523,5.05029297 C113.837238,4.89925055 113.424237,4.81665046 112.94751,4.80249023 C112.470782,4.78833001 111.760421,4.78125 110.816406,4.78125 L110.448242,4.78125 L110.448242,9.24169922 L111.11377,9.24169922 C112.020024,9.24169922 112.654865,9.23225921 113.018311,9.21337891 C113.381756,9.1944986 113.756997,9.0953785 114.144043,8.91601562 C114.56885,8.71777245 114.86149,8.44401216 115.021973,8.09472656 C115.182455,7.74544096 115.262695,7.33952054 115.262695,6.87695312 Z M116.59375,15.4438477 C116.59375,14.7924772 116.46159,14.2827167 116.197266,13.9145508 C115.932941,13.5463849 115.536461,13.2679046 115.007812,13.0791016 C114.686847,12.9563796 114.245527,12.8879395 113.683838,12.8737793 C113.122149,12.8596191 112.369308,12.8525391 111.425293,12.8525391 L110.448242,12.8525391 L110.448242,18.1342773 L110.731445,18.1342773 C112.109707,18.1342773 113.063148,18.1248373 113.591797,18.105957 C114.120445,18.0870767 114.658526,17.9596366 115.206055,17.7236328 C115.687502,17.5159495 116.039143,17.2115092 116.260986,16.8103027 C116.48283,16.4090963 116.59375,15.9536158 116.59375,15.4438477 Z" id="В"></path>
                <path d="M143.333984,22 L138.038086,22 L138.038086,4.93701172 L132.713867,4.93701172 C132.676107,5.75830489 132.640707,6.52530568 132.607666,7.23803711 C132.574625,7.95076854 132.539225,8.62808924 132.501465,9.27001953 C132.397623,11.110849 132.227703,12.6991307 131.991699,14.0349121 C131.755695,15.3706935 131.486655,16.4633747 131.18457,17.3129883 C130.854165,18.2192428 130.519045,18.9319635 130.179199,19.4511719 C129.839354,19.9703802 129.518393,20.3810206 129.216309,20.6831055 C128.763181,21.1362327 128.196781,21.4925931 127.51709,21.7521973 C126.837399,22.0118014 126.167158,22.1416016 125.506348,22.1416016 C125.062661,22.1416016 124.5765,22.1227215 124.047852,22.0849609 C123.519203,22.0472003 123.184083,22.0188803 123.04248,22 L123.04248,17.3413086 L123.240723,17.3413086 C123.335124,17.3507487 123.427164,17.3601888 123.516846,17.3696289 C123.606527,17.3790691 123.722167,17.3837891 123.86377,17.3837891 C124.099773,17.3837891 124.401854,17.346029 124.77002,17.2705078 C125.138185,17.1949866 125.416666,17.0675465 125.605469,16.8881836 C126.28516,16.2462533 126.75008,15.2526923 127.000244,13.9074707 C127.250408,12.5622491 127.441568,10.6199671 127.57373,8.08056641 C127.630371,6.91942779 127.665771,5.87630671 127.679932,4.95117188 C127.694092,4.02603704 127.729492,2.68083565 127.786133,0.915527344 L143.333984,0.915527344 L143.333984,22 Z" id="Л"></path>
                <polygon id="М" points="206.718262 22 201.450684 22 201.450684 8.02392578 197.613281 17.0439453 194.002441 17.0439453 190.165039 8.02392578 190.165039 22 185.180664 22 185.180664 0.915527344 191.283691 0.915527344 195.956543 11.3232422 200.615234 0.915527344 206.718262 0.915527344"></polygon>
                <path d="M163.592285,22 L158.324707,22 L158.324707,14.2685547 L156.328125,14.2685547 L151.018066,22 L144.730957,22 L151.018066,13.2631836 C149.724766,12.7062147 148.726485,11.9226939 148.023193,10.9125977 C147.319902,9.90250146 146.968262,8.59978011 146.968262,7.00439453 C146.968262,5.92821728 147.206622,4.9889363 147.68335,4.18652344 C148.160077,3.38411057 148.766598,2.72802989 149.50293,2.21826172 C150.14486,1.7745746 150.926021,1.44653427 151.846436,1.23413086 C152.76685,1.02172745 153.821771,0.915527344 155.01123,0.915527344 L163.592285,0.915527344 L163.592285,22 Z M158.324707,10.4736328 L158.324707,4.79541016 L156.625488,4.79541016 C155.804195,4.79541016 155.171714,4.82137018 154.728027,4.87329102 C154.28434,4.92521185 153.85482,5.10693204 153.439453,5.41845703 C153.118488,5.65446082 152.873048,5.96362114 152.703125,6.34594727 C152.533202,6.7282734 152.448242,7.15071383 152.448242,7.61328125 C152.448242,8.09472897 152.537922,8.52660942 152.717285,8.90893555 C152.896648,9.29126168 153.146808,9.605142 153.467773,9.85058594 C153.826499,10.1337905 154.24894,10.3084307 154.735107,10.3745117 C155.221275,10.4405928 155.860836,10.4736328 156.653809,10.4736328 L158.324707,10.4736328 Z" id="Я"></path>
                <polygon id="Е" points="167.180664 22 167.180664 0.915527344 181.439941 0.915527344 181.439941 4.93701172 172.448242 4.93701172 172.448242 8.6328125 180.731934 8.6328125 180.731934 12.6542969 172.448242 12.6542969 172.448242 17.9785156 181.439941 17.9785156 181.439941 22"></polygon>
                <path d="M79.4082031,38.5708008 C79.4082031,39.5525765 79.252443,40.4871375 78.940918,41.3745117 C78.629393,42.2618859 78.1809925,43.0029267 77.5957031,43.5976562 C77.2369774,43.9658222 76.842857,44.3056625 76.4133301,44.6171875 C75.9838032,44.9287125 75.5094427,45.1930328 74.9902344,45.4101562 C74.471026,45.6272797 73.9069855,45.7971999 73.2980957,45.9199219 C72.6892059,46.0426438 72.0071652,46.1040039 71.2519531,46.1040039 L68.4765625,46.1040039 L68.4765625,53 L63.1806641,53 L63.1806641,31.9155273 L71.3652344,31.9155273 C72.5830139,31.9155273 73.633215,32.0264475 74.5158691,32.248291 C75.3985233,32.4701346 76.1985641,32.8217749 76.9160156,33.3032227 C77.7089883,33.8318711 78.322589,34.5375119 78.7568359,35.420166 C79.1910829,36.3028202 79.4082031,37.3530213 79.4082031,38.5708008 Z M73.9707031,38.6982422 C73.9707031,38.1035127 73.829103,37.5913921 73.5458984,37.1618652 C73.2626939,36.7323383 72.9228535,36.437338 72.5263672,36.2768555 C72.0260392,36.059732 71.5469587,35.9346519 71.0891113,35.9016113 C70.631264,35.8685708 70.0105833,35.8520508 69.2270508,35.8520508 L68.4765625,35.8520508 L68.4765625,42.1674805 L68.8447266,42.1674805 C69.3450546,42.1674805 69.8170551,42.1627605 70.2607422,42.1533203 C70.7044293,42.1438802 71.0914697,42.1108401 71.421875,42.0541992 C71.7050795,42.0069985 72.0047999,41.9149584 72.3210449,41.7780762 C72.63729,41.641194 72.8803702,41.4877938 73.050293,41.3178711 C73.4090187,40.9685855 73.652099,40.6051451 73.779541,40.2275391 C73.9069831,39.849933 73.9707031,39.3401725 73.9707031,38.6982422 Z" id="Р"></path>
                <polygon id="Н" points="99.9799805 53 94.684082 53 94.684082 43.6542969 87.4765625 43.6542969 87.4765625 53 82.1806641 53 82.1806641 31.9155273 87.4765625 31.9155273 87.4765625 39.6328125 94.684082 39.6328125 94.684082 31.9155273 99.9799805 31.9155273"></polygon>
                <path d="M148.390625,53 L143.179688,53 L143.179688,39.1088867 L135.080078,53 L130.180664,53 L130.180664,31.9155273 L135.391602,31.9155273 L135.391602,44.4755859 L142.882324,31.9155273 L148.390625,31.9155273 L148.390625,53 Z M146.790527,24.9628906 C146.781087,26.6621179 146.169847,28.0214793 144.956787,29.0410156 C143.743728,30.060552 141.862806,30.5703125 139.313965,30.5703125 C136.812325,30.5703125 134.943203,30.053472 133.706543,29.0197754 C132.469883,27.9860788 131.846842,26.6337974 131.837402,24.9628906 L136.481934,24.9628906 C136.500814,25.9918671 136.717934,26.7399879 137.133301,27.2072754 C137.548667,27.6745629 138.275548,27.9082031 139.313965,27.9082031 C140.352381,27.9082031 141.079262,27.6722029 141.494629,27.2001953 C141.909996,26.7281877 142.127116,25.982427 142.145996,24.9628906 L146.790527,24.9628906 Z" id="Й"></path>
                <path d="M119.804688,46.2597656 C119.804688,47.2887421 119.608807,48.2351031 119.217041,49.098877 C118.825275,49.9626508 118.289554,50.6682915 117.609863,51.2158203 C116.79801,51.8671908 115.922449,52.3273912 114.983154,52.5964355 C114.043859,52.8654799 112.899258,53 111.549316,53 L103.180664,53 L103.180664,31.9155273 L108.462402,31.9155273 L108.462402,39.8310547 L111.634277,39.8310547 C112.870937,39.8310547 113.989578,39.9183748 114.990234,40.0930176 C115.99089,40.2676604 116.901851,40.6759408 117.723145,41.3178711 C118.450036,41.8842802 118.978677,42.5946409 119.309082,43.4489746 C119.639487,44.3033083 119.804688,45.2402293 119.804688,46.2597656 Z M114.338867,46.4155273 C114.338867,46.0662417 114.301107,45.7358414 114.225586,45.4243164 C114.150065,45.1127914 113.984865,44.8248711 113.72998,44.5605469 C113.475096,44.2962226 113.125816,44.0909024 112.682129,43.9445801 C112.238442,43.7982577 111.624841,43.7250977 110.841309,43.7250977 L108.462402,43.7250977 L108.462402,49.0917969 L110.841309,49.0917969 C111.917486,49.0917969 112.769447,48.8628766 113.397217,48.4050293 C114.024987,47.947182 114.338867,47.2840213 114.338867,46.4155273 Z M126.672363,53 L121.376465,53 L121.376465,31.9155273 L126.672363,31.9155273 L126.672363,53 Z" id="Ы"></path>
                <polygon id="Г" points="173.397461 35.9370117 164.476562 35.9370117 164.476562 53 159.180664 53 159.180664 31.9155273 173.397461 31.9155273"></polygon>
                <path d="M192.408203,38.5708008 C192.408203,39.5525765 192.252443,40.4871375 191.940918,41.3745117 C191.629393,42.2618859 191.180993,43.0029267 190.595703,43.5976562 C190.236977,43.9658222 189.842857,44.3056625 189.41333,44.6171875 C188.983803,44.9287125 188.509443,45.1930328 187.990234,45.4101562 C187.471026,45.6272797 186.906985,45.7971999 186.298096,45.9199219 C185.689206,46.0426438 185.007165,46.1040039 184.251953,46.1040039 L181.476562,46.1040039 L181.476562,53 L176.180664,53 L176.180664,31.9155273 L184.365234,31.9155273 C185.583014,31.9155273 186.633215,32.0264475 187.515869,32.248291 C188.398523,32.4701346 189.198564,32.8217749 189.916016,33.3032227 C190.708988,33.8318711 191.322589,34.5375119 191.756836,35.420166 C192.191083,36.3028202 192.408203,37.3530213 192.408203,38.5708008 Z M186.970703,38.6982422 C186.970703,38.1035127 186.829103,37.5913921 186.545898,37.1618652 C186.262694,36.7323383 185.922854,36.437338 185.526367,36.2768555 C185.026039,36.059732 184.546959,35.9346519 184.089111,35.9016113 C183.631264,35.8685708 183.010583,35.8520508 182.227051,35.8520508 L181.476562,35.8520508 L181.476562,42.1674805 L181.844727,42.1674805 C182.345055,42.1674805 182.817055,42.1627605 183.260742,42.1533203 C183.704429,42.1438802 184.09147,42.1108401 184.421875,42.0541992 C184.70508,42.0069985 185.0048,41.9149584 185.321045,41.7780762 C185.63729,41.641194 185.88037,41.4877938 186.050293,41.3178711 C186.409019,40.9685855 186.652099,40.6051451 186.779541,40.2275391 C186.906983,39.849933 186.970703,39.3401725 186.970703,38.6982422 Z" id="Р"></path>
                <path d="M212.597656,31.9155273 L205.560059,48.7802734 C205.144692,49.7620492 204.679771,50.53613 204.165283,51.1025391 C203.650795,51.6689481 203.110354,52.0984686 202.543945,52.3911133 C201.977536,52.683758 201.411136,52.8796382 200.844727,52.9787598 C200.278317,53.0778814 199.683597,53.1274414 199.060547,53.1274414 C198.409176,53.1274414 197.651616,53.1132814 196.787842,53.0849609 C195.924068,53.0566405 195.345867,53.0283205 195.053223,53 L195.053223,48.5253906 L195.378906,48.5253906 C195.463868,48.5442709 195.596028,48.567871 195.775391,48.5961914 C195.954754,48.6245119 196.181314,48.6528319 196.455078,48.6811523 C196.681642,48.7000326 196.927082,48.7189127 197.191406,48.737793 C197.45573,48.7566733 197.696451,48.7661133 197.913574,48.7661133 C198.546064,48.7661133 199.143145,48.6882332 199.704834,48.5324707 C200.266523,48.3767082 200.641763,48.1100279 200.830566,47.7324219 L193.02832,31.9155273 L198.749023,31.9155273 L203.266113,41.7993164 L207.089355,31.9155273 L212.597656,31.9155273 Z" id="У"></path>
                <path d="M228.816895,43.0170898 C229.288902,43.4230164 229.666502,43.9256969 229.949707,44.5251465 C230.232912,45.1245961 230.374512,45.8538369 230.374512,46.7128906 C230.374512,48.8180444 229.565031,50.4606061 227.946045,51.640625 C226.327059,52.8206439 224.002457,53.4106445 220.972168,53.4106445 C219.593906,53.4106445 218.279385,53.2879244 217.028564,53.0424805 C215.777744,52.7970365 214.633143,52.4619162 213.594727,52.0371094 L213.594727,47.3217773 L214.076172,47.3217773 C214.784183,47.8126652 215.716384,48.2917457 216.872803,48.7590332 C218.029221,49.2263207 219.159662,49.4599609 220.26416,49.4599609 C221.689623,49.4599609 222.822424,49.2050807 223.662598,48.6953125 C224.502771,48.1855443 224.922852,47.4020235 224.922852,46.3447266 C224.922852,45.4290319 224.616051,44.7517112 224.002441,44.3127441 C223.388832,43.8737771 222.28435,43.6542969 220.688965,43.6542969 L217.658691,43.6542969 L217.658691,39.8876953 L220.547363,39.8876953 C221.868984,39.8876953 222.836585,39.6870951 223.450195,39.2858887 C224.063805,38.8846822 224.370605,38.2828816 224.370605,37.4804688 C224.370605,36.7724574 224.033125,36.2579769 223.358154,35.9370117 C222.683183,35.6160466 221.784023,35.4555664 220.660645,35.4555664 C220.028154,35.4555664 219.426354,35.5216465 218.855225,35.6538086 C218.284095,35.7859707 217.724775,35.9511709 217.177246,36.1494141 C216.667478,36.3382171 216.197837,36.5458973 215.768311,36.7724609 C215.338784,36.9990246 215.010743,37.1689447 214.78418,37.2822266 L214.288574,37.2822266 L214.288574,32.8925781 C214.902184,32.637694 215.905185,32.3426937 217.297607,32.0075684 C218.69003,31.672443 220.150871,31.5048828 221.680176,31.5048828 C224.398939,31.5048828 226.433261,31.9556433 227.783203,32.8571777 C229.133145,33.7587122 229.808105,35.0118735 229.808105,36.6166992 C229.808105,37.8155984 229.437585,38.8492795 228.696533,39.7177734 C227.955481,40.5862674 226.99968,41.166828 225.829102,41.4594727 L225.829102,41.671875 C226.263349,41.7473962 226.768389,41.9031564 227.344238,42.1391602 C227.920088,42.3751639 228.410968,42.6678042 228.816895,43.0170898 Z" id="З"></path>
            </g>
            <path d="M197,1 C200.030333,0.557725694 203.197,0.336588542 206.5,0.336588542 C209.803,0.336588542 212.969667,0.557725694 216,1 L216,17 L197,17 L197,1 Z" id="Rectangle" fill="#D02D42"></path>
            <path d="M197,38 C200.030333,37.5577257 203.197,37.3365885 206.5,37.3365885 C209.803,37.3365885 212.969667,37.5577257 216,38 L216,54 L197,54 L197,38 Z" id="Rectangle-Copy" fill="#D02D42" transform="translate(206.500000, 45.668294) scale(1, -1) translate(-206.500000, -45.668294) "></path>
            <polygon id="Path-4" fill="#242265" points="128.896484 1.57421875 128.896484 52.9088542 146.908854 52.9088542 146.908854 33.2304688 153.723307 33.2304688 168.6875 52.9088542 191.01237 52.9088542 168.6875 25.6699219 189.997396 1.57421875 168.6875 1.57421875 153.723307 20.4895833 146.908854 20.4895833 146.908854 1.57421875"></polygon>
            <path d="M65.1217448,1.34765625 L67.4824219,14.9394531 C75.5190972,14.3977865 82.187066,14.1269531 87.4863281,14.1269531 C92.7855903,14.1269531 98.0431858,14.3977865 103.259115,14.9394531 L104.167969,20.1803385 L80.421224,20.1803385 L80.421224,33.6920573 L104.167969,33.6920573 L103.259115,39.5722656 C98.7133247,39.9546441 93.2304688,40.1458333 86.8105469,40.1458333 C80.390625,40.1458333 73.9479167,39.9546441 67.4824219,39.5722656 L65.1217448,52.8098958 C74.688151,53.3307292 83.6330295,53.5911458 91.9563802,53.5911458 C100.279731,53.5911458 108.548828,53.3307292 116.763672,52.8098958 C119.809245,44.6082899 121.332031,36.1992187 121.332031,27.5826823 C121.332031,18.9661458 119.809245,10.2211372 116.763672,1.34765625 C110.422092,0.872395833 102.594618,0.634765625 93.28125,0.634765625 C83.9678819,0.634765625 74.5813802,0.872395833 65.1217448,1.34765625 Z" id="Path-3" fill="#242265"></path>
            <polygon id="Path-2" fill="#242265" points="0.600911458 1.54622396 0.600911458 52.7226562 19.0091146 52.7226562 19.0091146 15.7154948 40.1601562 15.7154948 40.1601562 52.7226562 58.7434896 52.7226562 58.7434896 1.54622396"></polygon>
        </g>
    </g>
</svg>