<svg width="55" height="50" viewBox="0 0 55 50" fill="none" xmlns="http://www.w3.org/2000/svg">
<path d="M45.386 26.4271C44.9439 26.4271 44.5856 26.7528 44.5856 27.1547C44.5856 27.6642 44.1297 28.0786 43.5693 28.0786C43.009 28.0786 42.5529 27.6642 42.5529 27.1547C42.5529 26.7527 42.1946 26.4271 41.7525 26.4271C41.3105 26.4271 40.9521 26.7528 40.9521 27.1547C40.9521 28.4666 42.1263 29.5339 43.5693 29.5339C45.0123 29.5339 46.1864 28.4665 46.1864 27.1547C46.1864 26.7526 45.828 26.4271 45.386 26.4271Z" fill="white"/>
<path d="M52.8993 26.5459L50.6464 25.8898C50.3579 25.8058 50.1305 25.5964 50.0382 25.3297C49.5634 23.9573 48.8469 22.6689 47.9085 21.5002C47.4809 20.9675 47.0053 20.4588 46.4858 19.9745C46.8182 18.649 46.9989 17.1489 46.9755 15.8529C46.942 13.9989 46.5344 12.9115 45.7296 12.5283C45.2962 12.3217 43.977 11.6939 36.837 14.6652C36.6679 14.7355 36.51 14.8222 36.3638 14.9214C35.8825 14.8038 35.3905 14.695 34.8955 14.5974C34.8358 14.5855 34.7744 14.5751 34.7143 14.5636C35.2929 13.4145 35.6308 12.1666 35.6942 10.8783C35.714 10.4768 35.3721 10.1367 34.9304 10.1188C34.4898 10.0989 34.1146 10.4116 34.095 10.8132C33.9906 12.9314 33.0241 14.9245 31.3734 16.4252C30.3872 17.3218 29.2324 17.973 28.0017 18.3832C25.8673 18.1109 23.6933 18.1109 21.5589 18.3832C20.3281 17.973 19.1734 17.3218 18.1872 16.4252C16.4261 14.8242 15.4562 12.6956 15.4562 10.4314C15.4562 8.16719 16.4261 6.03867 18.1872 4.4377C19.9482 2.83662 22.2898 1.95488 24.7803 1.95488C27.2708 1.95488 29.6123 2.83662 31.3734 4.4377C32.0811 5.08105 32.6659 5.81523 33.1116 6.61963C33.3105 6.97861 33.7918 7.12314 34.1866 6.94228C34.5815 6.76162 34.7403 6.32402 34.5415 5.96514C34.0191 5.02187 33.3341 4.16182 32.5055 3.4085C30.4421 1.53262 27.6985 0.499512 24.7804 0.499512C21.8623 0.499512 19.1187 1.53262 17.0553 3.4085C14.9918 5.28447 13.8554 7.77852 13.8554 10.4313C13.8554 13.0842 14.9918 15.5783 17.0553 17.4542C17.6505 17.9953 18.298 18.4606 18.983 18.8505C18.9832 18.8505 18.9834 18.8504 18.9836 18.8504C18.4859 18.968 17.992 19.1 17.5035 19.2484C17.0843 19.3759 16.858 19.7881 16.9982 20.1693C17.1383 20.5505 17.5919 20.7561 18.0111 20.6288C22.3763 19.3021 27.1845 19.3021 31.5497 20.6288C31.6339 20.6544 31.7194 20.6665 31.8035 20.6665C32.1384 20.6665 32.4505 20.4739 32.5626 20.1693C32.7028 19.7882 32.4765 19.3759 32.0573 19.2484C31.5688 19.1 31.0749 18.9679 30.5772 18.8504C30.5774 18.8504 30.5776 18.8505 30.5779 18.8505C31.2629 18.4606 31.9103 17.9953 32.5055 17.4542C33.0321 16.9755 33.4969 16.4527 33.9005 15.8972C34.1212 15.9361 34.3402 15.977 34.556 16.0195C34.8435 16.0763 35.1296 16.1372 35.4132 16.2012C35.4043 16.2328 35.3952 16.2644 35.3878 16.2965C34.9974 17.9806 35.0228 19.47 35.4631 20.7232C35.8588 21.8497 36.5731 22.7623 37.5857 23.4358C38.7793 24.2296 40.2203 24.5725 41.5255 24.5725C42.5079 24.5725 43.4136 24.3781 44.0787 24.0356C44.8311 23.6482 45.4615 22.8319 45.9604 21.6063C46.1911 21.8511 46.4097 22.1018 46.6157 22.3584C47.4511 23.3988 48.0889 24.5455 48.5113 25.7664C48.7593 26.4835 49.3751 27.0478 50.1583 27.276L52.4111 27.932C53.0023 28.1042 53.3994 28.5988 53.3994 29.1631V32.5591C53.3994 33.1233 53.0023 33.618 52.4111 33.7901L48.7815 34.8471C48.2007 35.0163 47.7093 35.3791 47.3976 35.8687C45.9716 38.1092 43.7296 39.9632 40.7335 41.3793C40.3874 41.5431 40.1476 41.8359 40.0755 42.183L38.9129 47.779C38.8808 47.9332 38.7322 48.045 38.5596 48.045H34.7798C34.6071 48.045 34.4586 47.9331 34.4265 47.779L33.7826 44.6863C33.6558 44.0778 33.028 43.6736 32.3524 43.7667C30.7242 43.9905 29.0464 44.1039 27.366 44.1039C26.1159 44.1039 24.8817 44.0405 23.6976 43.9154C23.0429 43.847 22.4329 44.2527 22.3106 44.8404L21.6987 47.779C21.6666 47.9332 21.518 48.045 21.3454 48.045H17.5655C17.3929 48.045 17.2443 47.9331 17.2118 47.7767L16.0924 42.4913C16.0204 42.1508 15.7851 41.8612 15.4466 41.6969C10.3394 39.2183 7.63984 35.0772 7.63984 29.7218C7.63984 27.0159 8.29104 24.6232 9.57526 22.61C10.7737 20.7311 12.524 19.1777 14.7776 17.9927C15.1602 17.7914 15.291 17.3463 15.0697 16.9983C14.8484 16.6505 14.3588 16.5318 13.976 16.7328C9.6062 19.0309 6.97061 22.5762 6.24497 27.0791V27.079C6.16795 27.0727 6.09082 27.0666 6.01401 27.0594C6.02798 26.5735 5.9313 26.0833 5.72075 25.6075C5.25637 24.5581 4.30246 23.8007 3.29044 23.6779C2.49294 23.5809 1.734 23.8887 1.20731 24.5213C0.443652 25.4387 0.568154 26.1646 0.806953 26.6121C1.21011 27.3673 2.24641 27.9015 3.96612 28.2373C3.91886 28.3017 3.86687 28.3663 3.80993 28.4312C2.79383 29.5897 1.59672 29.8459 0.819414 29.87C0.364375 29.884 0 30.2161 0 30.6301V30.6336C0 31.0419 0.354385 31.3749 0.803086 31.3936C0.860557 31.396 0.920606 31.3973 0.983125 31.3973C1.96668 31.3973 3.54524 31.0675 5.06183 29.3387C5.30127 29.0658 5.49635 28.7779 5.64631 28.4805C5.79734 28.496 5.94247 28.5093 6.08147 28.521C6.08147 28.5207 6.08147 28.5205 6.08158 28.5202C6.0543 28.9145 6.03915 29.3146 6.03915 29.7218C6.03915 32.7519 6.83375 35.4535 8.40071 37.752C9.84554 39.8712 11.9142 41.6063 14.5512 42.9112L15.6393 48.0495C15.8143 48.8901 16.6244 49.5003 17.5655 49.5003H21.3454C22.2865 49.5003 23.0966 48.8901 23.2716 48.0495L23.8248 45.3925C24.9738 45.5031 26.1633 45.5592 27.3659 45.5592C29.0159 45.5592 30.664 45.4547 32.2702 45.2484L32.8534 48.0497C33.0285 48.8903 33.8385 49.5004 34.7795 49.5004H38.5594C39.5005 49.5004 40.3106 48.8902 40.4857 48.0493L41.6176 42.601C44.8153 41.0638 47.2257 39.0444 48.7831 36.5976C48.8953 36.4212 49.0682 36.2918 49.2697 36.2331L52.8993 35.1762C54.1558 34.8101 55 33.7584 55 32.5589V29.1629C55 27.9635 54.1558 26.9118 52.8993 26.5459ZM45.2545 17.8978C44.9464 20.2929 44.12 22.3417 43.2896 22.7692C42.3458 23.2553 40.1668 23.3491 38.5307 22.2611C36.8928 21.1719 36.3476 19.2131 36.954 16.5965C36.954 16.5964 36.954 16.5964 36.954 16.5964C37.0149 16.3336 37.2203 16.1062 37.5033 15.9885C41.5106 14.3209 43.8209 13.7755 44.6792 13.7755C44.8088 13.7755 44.9052 13.7879 44.9695 13.8107C45.2273 14.0605 45.5655 15.4806 45.2545 17.8978ZM2.24737 25.9767C2.16455 25.8214 2.36006 25.5484 2.48402 25.3994C2.6805 25.1635 2.8615 25.1152 2.99825 25.1152C3.02715 25.1152 3.05411 25.1174 3.07882 25.1204C3.44685 25.165 3.96247 25.5332 4.23564 26.1505C4.29999 26.2958 4.38356 26.5365 4.40312 26.8367C3.29506 26.628 2.43418 26.3271 2.24737 25.9767Z" fill="white"/>
<path d="M25.5576 9.59737V6.99346C26.5454 7.05762 26.9123 7.46807 27.2509 7.46807C27.6743 7.46807 27.8718 6.98067 27.8718 6.73692C27.8718 6.10831 26.5171 5.83897 25.5576 5.81329V5.4668C25.5576 5.3129 25.3459 5.17178 25.1343 5.17178C24.8943 5.17178 24.725 5.3129 24.725 5.4668V5.83878C23.3845 5.9671 22.044 6.6085 22.044 8.22481C22.044 9.8668 23.4551 10.3286 24.725 10.7391V13.7536C23.2857 13.651 22.9048 12.753 22.4391 12.753C22.0863 12.753 21.79 13.1764 21.79 13.4843C21.79 14.1128 22.9753 14.9723 24.725 14.998V15.3956C24.725 15.5495 24.8944 15.6906 25.1343 15.6906C25.346 15.6906 25.5576 15.5495 25.5576 15.3956V14.9595C27.0816 14.767 28.1258 13.8947 28.1258 12.3169C28.1258 10.5724 26.7853 10.0078 25.5576 9.59737ZM24.8097 9.35372C24.0618 9.09717 23.4551 8.82784 23.4551 8.09669C23.4551 7.4296 24.0195 7.10889 24.8097 7.01915V9.35372ZM25.4729 13.7279V11.0213C26.1643 11.2906 26.7146 11.6498 26.7146 12.4579C26.7146 13.1893 26.2348 13.5997 25.4729 13.7279Z" fill="white"/>
</svg>
