<svg width="53" height="50" viewBox="0 0 53 50" fill="none" xmlns="http://www.w3.org/2000/svg">
<path d="M48.9542 21.875H46.3757C46.2288 21.3734 45.9128 20.9306 45.4755 20.6134C45.0382 20.2963 44.5033 20.1221 43.9517 20.1172H41.1992V13.7672C41.2023 13.6484 41.1719 13.531 41.111 13.4269C41.0502 13.3229 40.9611 13.236 40.8529 13.1752L21.4357 2.59492C21.3263 2.53491 21.2019 2.5033 21.0754 2.5033C20.9488 2.5033 20.8245 2.53491 20.715 2.59492L1.29188 13.1752C1.18198 13.2353 1.09081 13.3217 1.02757 13.4256C0.964324 13.5295 0.931238 13.6473 0.931644 13.7672V34.9278C0.931648 35.0478 0.965131 35.1657 1.02873 35.2696C1.09233 35.3735 1.1838 35.4598 1.29395 35.5198L20.7191 46.1001C20.8292 46.1601 20.9542 46.1917 21.0814 46.1917C21.2119 46.1918 21.3402 46.1602 21.454 46.1001L31.6758 40.5379V44.5588C31.6747 44.9416 31.7542 45.3208 31.9095 45.6745C32.0649 46.0281 32.293 46.3492 32.5808 46.6191C32.8686 46.889 33.2102 47.1024 33.586 47.2469C33.9618 47.3914 34.3642 47.4641 34.77 47.4609H48.9542C49.361 47.4645 49.7646 47.3921 50.1416 47.248C50.5187 47.1038 50.8618 46.8908 51.1513 46.6211C51.4407 46.3513 51.6707 46.0303 51.8281 45.6763C51.9855 45.3224 52.0672 44.9426 52.0684 44.5588V24.8225C52.0679 24.0425 51.7399 23.2946 51.1563 22.7422C50.5727 22.1898 49.7809 21.878 48.9542 21.875ZM43.9775 21.4844C44.2564 21.4844 44.524 21.5889 44.7212 21.775C44.9185 21.9611 45.0293 22.2135 45.0293 22.4767V22.5429C45.0293 22.806 44.9185 23.0584 44.7212 23.2445C44.524 23.4306 44.2564 23.5351 43.9775 23.5351H39.7667C39.4877 23.5351 39.2202 23.4306 39.0229 23.2445C38.8257 23.0584 38.7148 22.806 38.7148 22.5429V22.4767C38.7148 22.2135 38.8257 21.9611 39.0229 21.775C39.2202 21.5889 39.4877 21.4844 39.7667 21.4844H43.9775ZM21.0814 3.97626L29.1529 8.37255L11.1782 18.1628L3.10682 13.7665L21.0814 3.97626ZM20.3926 44.324L2.38086 34.5331V14.9497L20.3926 24.7406V44.324ZM21.0814 23.5566L12.6275 18.952L30.6021 9.16191L39.0564 13.7665L21.0814 23.5566ZM31.6758 24.8225V38.9593L21.8418 44.324V24.7406L39.75 14.9497V20.1172H39.7725C39.2209 20.1221 38.686 20.2963 38.2486 20.6134C37.8113 20.9305 37.4953 21.3734 37.3484 21.875H34.77C33.9453 21.8788 33.1561 22.1914 32.5758 22.7442C31.9955 23.2969 31.6718 24.0445 31.6758 24.8225ZM50.6191 44.5588C50.6182 44.7631 50.5741 44.9652 50.4896 45.1534C50.4051 45.3415 50.2819 45.5119 50.127 45.6548C49.972 45.7976 49.7886 45.9099 49.5873 45.9853C49.3859 46.0606 49.1708 46.0975 48.9542 46.0937H34.77C34.5545 46.0972 34.3404 46.0599 34.1404 45.9842C33.9403 45.9085 33.7583 45.7958 33.6051 45.6528C33.4518 45.5098 33.3304 45.3394 33.248 45.1515C33.1655 44.9636 33.1237 44.7621 33.125 44.5588V24.8225C33.1228 24.6167 33.1637 24.4126 33.2452 24.2218C33.3267 24.031 33.4473 23.8573 33.6001 23.7105C33.7529 23.5637 33.9349 23.4468 34.1356 23.3664C34.3363 23.2861 34.5519 23.2439 34.77 23.2422H37.3767C37.5321 23.7261 37.8496 24.1494 38.2815 24.4487C38.7134 24.748 39.2366 24.9072 39.7725 24.9023H43.9517C44.4876 24.9072 45.0107 24.748 45.4426 24.4487C45.8746 24.1494 46.192 23.7261 46.3474 23.2422H48.9542C49.3967 23.2448 49.8201 23.4125 50.132 23.7085C50.4439 24.0046 50.619 24.405 50.6191 24.8225V44.5588Z" fill="white"/>
<path d="M35.6041 31.7383H36.3626C36.5548 31.7383 36.7391 31.6663 36.8749 31.5381C37.0108 31.4099 37.0872 31.236 37.0872 31.0547C37.0872 30.8734 37.0108 30.6995 36.8749 30.5713C36.7391 30.4431 36.5548 30.3711 36.3626 30.3711H36.334V28.5156H38.3326C38.3781 28.6531 38.4701 28.7727 38.5945 28.856C38.7189 28.9394 38.8689 28.982 39.0215 28.9772C39.2139 28.9777 39.3987 28.9062 39.5352 28.7783C39.6718 28.6505 39.7491 28.4767 39.75 28.2952V27.8353C39.7484 27.6528 39.6705 27.4784 39.5334 27.3498C39.3963 27.2212 39.2109 27.1489 39.0175 27.1484H35.6041C35.5091 27.1489 35.415 27.167 35.3274 27.2018C35.2398 27.2366 35.1603 27.2873 35.0935 27.3511C35.0267 27.4149 34.9738 27.4905 34.938 27.5736C34.9022 27.6567 34.8841 27.7456 34.8848 27.8353V31.0555C34.8842 31.1449 34.9024 31.2336 34.9383 31.3164C34.9742 31.3993 35.0271 31.4746 35.0939 31.538C35.1608 31.6015 35.2403 31.6518 35.3278 31.6862C35.4154 31.7206 35.5093 31.7383 35.6041 31.7383Z" fill="white"/>
<path d="M35.6094 37.9883H39.0254C39.2176 37.9883 39.4019 37.9163 39.5378 37.7881C39.6737 37.6599 39.75 37.486 39.75 37.3047V34.082C39.75 33.9007 39.6737 33.7269 39.5378 33.5987C39.4019 33.4705 39.2176 33.3984 39.0254 33.3984H35.6094C35.4172 33.3984 35.2329 33.4705 35.097 33.5987C34.9611 33.7269 34.8848 33.9007 34.8848 34.082V37.3047C34.8848 37.486 34.9611 37.6599 35.097 37.7881C35.2329 37.9163 35.4172 37.9883 35.6094 37.9883ZM36.334 34.7656H38.3008V36.6211H36.334V34.7656Z" fill="white"/>
<path d="M36.3627 42.8711H36.334V41.0156H38.2935C38.2972 41.1954 38.3755 41.3666 38.5115 41.4926C38.6475 41.6185 38.8305 41.6892 39.0211 41.6893C39.2116 41.6895 39.3947 41.6192 39.531 41.4935C39.6673 41.3678 39.7459 41.1968 39.75 41.017V40.3583C39.7493 40.1735 39.6725 39.9962 39.5359 39.8637C39.3992 39.7313 39.2134 39.6541 39.0176 39.6484H35.6041C35.4097 39.6546 35.2255 39.7323 35.0911 39.865C34.9566 39.9977 34.8826 40.1748 34.8848 40.3583V43.5785C34.8847 43.6668 34.9034 43.7542 34.9398 43.8355C34.9761 43.9168 35.0295 43.9904 35.0965 44.052C35.1636 44.1135 35.2431 44.1617 35.3303 44.1937C35.4175 44.2257 35.5106 44.2409 35.6041 44.2383H36.3627C36.5549 44.2383 36.7392 44.1663 36.8751 44.0381C37.011 43.9099 37.0873 43.736 37.0873 43.5547C37.0873 43.3734 37.011 43.1995 36.8751 43.0713C36.7392 42.9431 36.5549 42.8711 36.3627 42.8711Z" fill="white"/>
<path d="M40.6858 27.9875L38.5637 29.9895L37.9182 29.3804C37.8509 29.3169 37.771 29.2665 37.6831 29.2322C37.5952 29.1978 37.501 29.1802 37.4058 29.1802C37.3106 29.1802 37.2164 29.1978 37.1285 29.2322C37.0406 29.2665 36.9607 29.3169 36.8934 29.3804C36.8261 29.4439 36.7727 29.5192 36.7363 29.6022C36.6999 29.6851 36.6812 29.774 36.6812 29.8638C36.6812 29.9536 36.6999 30.0425 36.7363 30.1254C36.7727 30.2083 36.8261 30.2837 36.8934 30.3472L38.0514 31.4396C38.1187 31.5031 38.1986 31.5534 38.2865 31.5878C38.3744 31.6221 38.4687 31.6398 38.5638 31.6398C38.659 31.6398 38.7532 31.6221 38.8411 31.5878C38.9291 31.5534 39.0089 31.5031 39.0762 31.4396L41.7109 28.954C41.8468 28.8258 41.9231 28.6519 41.9231 28.4706C41.9231 28.2893 41.8468 28.1154 41.7109 27.9872C41.575 27.859 41.3907 27.787 41.1985 27.787C41.0063 27.787 40.822 27.859 40.6861 27.9872L40.6858 27.9875Z" fill="white"/>
<path d="M40.6858 40.6095L38.5637 42.6114L37.9182 42.0024C37.8509 41.9389 37.771 41.8885 37.6831 41.8542C37.5952 41.8198 37.501 41.8021 37.4058 41.8021C37.3106 41.8021 37.2164 41.8198 37.1285 41.8542C37.0406 41.8885 36.9607 41.9389 36.8934 42.0024C36.8261 42.0658 36.7727 42.1412 36.7363 42.2241C36.6999 42.3071 36.6812 42.396 36.6812 42.4858C36.6812 42.5755 36.6999 42.6644 36.7363 42.7474C36.7727 42.8303 36.8261 42.9057 36.8934 42.9692L38.0514 44.0615C38.1187 44.125 38.1986 44.1754 38.2865 44.2097C38.3744 44.2441 38.4687 44.2618 38.5638 44.2618C38.659 44.2618 38.7532 44.2441 38.8411 44.2097C38.9291 44.1754 39.0089 44.125 39.0762 44.0615L41.7109 41.576C41.8468 41.4478 41.9231 41.2739 41.9231 41.0926C41.9231 40.9113 41.8468 40.7374 41.7109 40.6092C41.575 40.481 41.3907 40.409 41.1985 40.409C41.0063 40.409 40.822 40.481 40.6861 40.6092L40.6858 40.6095Z" fill="white"/>
<path d="M48.12 28.8086H43.5688C43.3767 28.8086 43.1924 28.8806 43.0565 29.0088C42.9206 29.137 42.8442 29.3109 42.8442 29.4922C42.8442 29.6735 42.9206 29.8474 43.0565 29.9756C43.1924 30.1038 43.3767 30.1758 43.5688 30.1758H48.12C48.3122 30.1758 48.4965 30.1038 48.6324 29.9756C48.7683 29.8474 48.8446 29.6735 48.8446 29.4922C48.8446 29.3109 48.7683 29.137 48.6324 29.0088C48.4965 28.8806 48.3122 28.8086 48.12 28.8086Z" fill="white"/>
<path d="M48.12 35.0586H43.5688C43.3767 35.0586 43.1924 35.1306 43.0565 35.2588C42.9206 35.387 42.8442 35.5609 42.8442 35.7422C42.8442 35.9235 42.9206 36.0974 43.0565 36.2256C43.1924 36.3538 43.3767 36.4258 43.5688 36.4258H48.12C48.3122 36.4258 48.4965 36.3538 48.6324 36.2256C48.7683 36.0974 48.8446 35.9235 48.8446 35.7422C48.8446 35.5609 48.7683 35.387 48.6324 35.2588C48.4965 35.1306 48.3122 35.0586 48.12 35.0586Z" fill="white"/>
<path d="M48.12 41.3086H43.5688C43.3767 41.3086 43.1924 41.3806 43.0565 41.5088C42.9206 41.637 42.8442 41.8109 42.8442 41.9922C42.8442 42.1735 42.9206 42.3474 43.0565 42.4756C43.1924 42.6038 43.3767 42.6758 43.5688 42.6758H48.12C48.3122 42.6758 48.4965 42.6038 48.6324 42.4756C48.7683 42.3474 48.8446 42.1735 48.8446 41.9922C48.8446 41.8109 48.7683 41.637 48.6324 41.5088C48.4965 41.3806 48.3122 41.3086 48.12 41.3086Z" fill="white"/>
</svg>
