<svg width="49" height="51" viewBox="0 0 49 51" fill="none" xmlns="http://www.w3.org/2000/svg">
<g clip-path="url(#clip0)">
<path d="M4.43293 20.4717H15.3587C15.746 20.4717 16.0597 20.1452 16.0597 19.7421C16.0597 19.339 15.746 19.0125 15.3587 19.0125H4.43293C4.04605 19.0125 3.73193 19.339 3.73193 19.7421C3.73193 20.1452 4.04605 20.4717 4.43293 20.4717Z" fill="white"/>
<path d="M4.43293 25.7032H15.3587C15.746 25.7032 16.0597 25.3767 16.0597 24.9736C16.0597 24.5709 15.746 24.244 15.3587 24.244H4.43293C4.04605 24.244 3.73193 24.5709 3.73193 24.9736C3.73193 25.3767 4.04605 25.7032 4.43293 25.7032Z" fill="white"/>
<path d="M15.3591 30.9338C15.746 30.9338 16.0601 30.6073 16.0601 30.2042C16.0601 29.8011 15.746 29.4746 15.3591 29.4746H4.43294C4.04605 29.4746 3.73193 29.8011 3.73193 30.2042C3.73193 30.6073 4.04605 30.9338 4.43294 30.9338H15.3591Z" fill="white"/>
<path d="M4.43293 15.2406H15.3587C15.746 15.2406 16.0597 14.9141 16.0597 14.511C16.0597 14.1083 15.746 13.7814 15.3587 13.7814H4.43293C4.04605 13.7814 3.73193 14.1083 3.73193 14.511C3.73193 14.9141 4.04605 15.2406 4.43293 15.2406Z" fill="white"/>
<path d="M22.1331 30.8202H27.0264C27.4137 30.8202 27.7274 30.4933 27.7274 30.0906C27.7274 29.6876 27.4137 29.361 27.0264 29.361H22.1331C21.7459 29.361 21.4321 29.6876 21.4321 30.0906C21.4321 30.4933 21.7459 30.8202 22.1331 30.8202Z" fill="white"/>
<path d="M22.1331 35.1413H24.9739C25.3608 35.1413 25.6749 34.8148 25.6749 34.4117C25.6749 34.009 25.3608 33.6821 24.9739 33.6821H22.1331C21.7459 33.6821 21.4321 34.009 21.4321 34.4117C21.4321 34.8148 21.7459 35.1413 22.1331 35.1413Z" fill="white"/>
<path d="M24.1915 38.3448H22.1331C21.7459 38.3448 21.4321 38.6713 21.4321 39.0744C21.4321 39.4771 21.7459 39.804 22.1331 39.804H24.1915C24.5788 39.804 24.8925 39.4771 24.8925 39.0744C24.8925 38.6713 24.5788 38.3448 24.1915 38.3448Z" fill="white"/>
<path d="M22.1331 26.1576H26.8312C27.2181 26.1576 27.5322 25.831 27.5322 25.4279C27.5322 25.0253 27.2181 24.6983 26.8312 24.6983H22.1331C21.7459 24.6983 21.4321 25.0253 21.4321 25.4279C21.4321 25.831 21.7459 26.1576 22.1331 26.1576Z" fill="white"/>
<path d="M22.1331 21.6089H26.8312C27.2181 21.6089 27.5322 21.2823 27.5322 20.8792C27.5322 20.4762 27.2181 20.1496 26.8312 20.1496H22.1331C21.7459 20.1496 21.4321 20.4762 21.4321 20.8792C21.4321 21.2823 21.7459 21.6089 22.1331 21.6089Z" fill="white"/>
<path d="M46.4323 29.7242C46.2751 28.677 45.4063 27.9062 44.3876 27.9107H42.9109V26.4722C42.9191 24.5224 41.9247 22.7171 40.3037 21.7395C38.6826 20.7624 36.6829 20.7624 35.0618 21.7395C33.4407 22.7171 32.446 24.5224 32.4542 26.4722V27.9107H30.9778C30.8941 27.9111 30.8104 27.9168 30.7275 27.9278V14.5289C30.7275 14.1262 30.4134 13.7993 30.0265 13.7993H28.6796V10.7277C28.6796 10.3247 28.3655 9.99812 27.9786 9.99812H25.7645V8.66593C25.7645 8.26285 25.4508 7.93631 25.0635 7.93631C24.6763 7.93631 24.3625 8.26285 24.3625 8.66593V9.99812H22.0937C21.7068 9.99812 21.3927 10.3247 21.3927 10.7277V13.7993H19.788V9.87353C19.788 9.47086 19.4739 9.14392 19.087 9.14392H16.5705V6.02067C16.5705 5.61759 16.2564 5.29105 15.8695 5.29105H10.4876V3.36645C10.4876 2.96378 10.1739 2.63684 9.78664 2.63684C9.39975 2.63684 9.08563 2.96378 9.08563 3.36645V5.29105H3.91849C3.53122 5.29105 3.21749 5.61759 3.21749 6.02067V9.14392H0.701001C0.313729 9.14392 0 9.47086 0 9.87353V44.3091C0 44.7118 0.313729 45.0387 0.701001 45.0387H9.41853C9.64425 45.1853 9.9302 45.1853 10.1559 45.0387H26.3693C26.4554 46.9499 27.9677 48.4543 29.8062 48.4567H45.5592C47.4584 48.4543 48.9977 46.8526 49.0001 44.8755C49.0001 44.8331 48.9966 44.7904 48.9891 44.7484L46.4323 29.7242ZM33.8562 26.4722C33.8491 25.0444 34.5771 23.7224 35.764 23.0062C36.9504 22.2904 38.4146 22.2904 39.6015 23.0062C40.7883 23.7224 41.5159 25.0444 41.5089 26.4722V27.9107H33.8562V26.4722ZM22.7947 11.4573H27.2776V13.7993H22.7947V11.4573ZM29.3255 15.2585V29.5495L29.5457 28.5072C29.2191 28.8321 29.0039 29.2596 28.9331 29.7246L26.5751 43.5795H19.788V15.2585H29.3255ZM4.61949 6.75028H15.1685V9.14392H4.61949V6.75028ZM1.402 10.6031H18.3864V43.5795H14.2723V36.6893C14.2723 36.2862 13.9582 35.9597 13.5713 35.9597H9.83514C9.8191 35.9584 9.80307 35.9568 9.78664 35.9568C9.7706 35.9568 9.75417 35.9584 9.73813 35.9597H6.21669C5.82981 35.9597 5.51569 36.2862 5.51569 36.6893V43.5799H1.402V10.6031ZM10.4876 37.4189H12.8703V43.5799H10.4876V37.4189ZM9.08563 43.5799H6.91769V37.4189H9.08563V43.5799ZM45.5592 46.9975H29.8062C28.7031 46.9963 27.8003 46.0826 27.7682 44.9353L30.3148 29.9725C30.3156 29.9676 30.3164 29.9627 30.3167 29.9583C30.3668 29.6187 30.6481 29.3687 30.9778 29.3699H32.4546V31.7505C32.4546 32.1536 32.7683 32.4802 33.1556 32.4802C33.5424 32.4802 33.8566 32.1536 33.8566 31.7505V29.3699H41.5093V31.7505C41.5093 32.1532 41.823 32.4802 42.2103 32.4802C42.5976 32.4802 42.9113 32.1532 42.9113 31.7505V29.3699H44.3876C44.7178 29.3683 44.999 29.6187 45.0487 29.9583C45.0495 29.9627 45.0503 29.9676 45.0511 29.9721L47.5977 44.9349C47.5652 46.0826 46.6627 46.9963 45.5592 46.9975Z" fill="white"/>
</g>
<defs>
<clipPath id="clip0">
<rect width="49" height="51" fill="white"/>
</clipPath>
</defs>
</svg>
